<?xml version="1.0" encoding="utf-8"?><svg xmlns="http://www.w3.org/2000/svg" xmlns:xlink="http://www.w3.org/1999/xlink"><symbol viewBox="0 0 50 50" id="ARROW" xmlns="http://www.w3.org/2000/svg"><path d="M15.563 40.836a.997.997 0 0 0 1.414 0l15-15a.999.999 0 0 0 0-1.414l-15-15a.999.999 0 1 0-1.414 1.414l14.293 14.293-14.293 14.293a.999.999 0 0 0 0 1.414z"/></symbol><symbol viewBox="0 0 50 50" id="BELL" xmlns="http://www.w3.org/2000/svg"><path d="M29.942 36.98a1 1 0 0 0-1 1c0 .926-.852 1.679-1.898 1.679s-1.898-.753-1.898-1.679a1 1 0 1 0-2 0c0 2.028 1.749 3.679 3.898 3.679s3.898-1.65 3.898-3.679a1 1 0 0 0-1-1zm7.102-10.122h-1.553l-.001-3.787c-.052-3.94-3.31-7.194-7.446-7.653v-.778c1.002-.38 1.714-1.309 1.714-2.397 0-1.425-1.218-2.584-2.714-2.584s-2.714 1.159-2.714 2.584c0 1.088.712 2.017 1.714 2.397v.778c-4.119.458-7.376 3.697-7.446 7.612l-.001 3.828h-1.553a1 1 0 0 0-1 1c0 4.677 1.589 7.359 4.358 7.359h13.282c4.359 0 4.359-5.539 4.359-7.359a.998.998 0 0 0-.999-1zm-10-15.199c.387 0 .714.268.714.584s-.327.584-.714.584-.714-.268-.714-.584.327-.584.714-.584zm-6.446 11.414c.057-3.151 2.948-5.716 6.446-5.716 3.512 0 6.404 2.575 6.446 5.728l.001 3.773H20.597l.001-3.785zm13.087 10.145H20.402c-1.76 0-2.21-2.742-2.322-4.359h17.945c-.122 3.042-.841 4.359-2.34 4.359z"/></symbol><symbol viewBox="0 0 50 50" id="MAXIMIZE" xmlns="http://www.w3.org/2000/svg"><path d="M39.642 9.722a1.01 1.01 0 0 0-.382-.077H28.103a1 1 0 1 0 0 2h8.743L21.7 26.791a.999.999 0 1 0 1.414 1.414L38.26 13.06v8.743a1 1 0 1 0 2 0V10.646a1.005 1.005 0 0 0-.618-.924z"/><path d="M39.26 27.985a1 1 0 0 0-1 1v10.66h-28v-28h10.683a1 1 0 1 0 0-2H9.26a1 1 0 0 0-1 1v30a1 1 0 0 0 1 1h30a1 1 0 0 0 1-1v-11.66a1 1 0 0 0-1-1z"/></symbol><symbol viewBox="0 0 50 50" id="SEARCH" xmlns="http://www.w3.org/2000/svg"><path d="M20.745 32.62c2.883 0 5.606-1.022 7.773-2.881L39.052 40.3a.996.996 0 0 0 1.414.002 1 1 0 0 0 .002-1.414L29.925 28.319c3.947-4.714 3.717-11.773-.705-16.205-2.264-2.27-5.274-3.52-8.476-3.52s-6.212 1.25-8.476 3.52c-4.671 4.683-4.671 12.304 0 16.987a11.9 11.9 0 0 0 8.477 3.519zm-7.06-19.094c1.886-1.891 4.393-2.932 7.06-2.932s5.174 1.041 7.06 2.932c3.895 3.905 3.895 10.258 0 14.163-1.886 1.891-4.393 2.932-7.06 2.932s-5.174-1.041-7.06-2.932c-3.894-3.905-3.894-10.258 0-14.163z"/></symbol></svg>