<?xml version="1.0" encoding="utf-8"?><svg xmlns="http://www.w3.org/2000/svg" xmlns:xlink="http://www.w3.org/1999/xlink"><symbol viewBox="0 0 22.35 23.26" id="phone" xmlns="http://www.w3.org/2000/svg"><defs><style>.acls-1{fill:#308a91}</style></defs><title>Ресурс 3</title><g id="aСлой_2" data-name="Слой 2"><path class="acls-1" d="M17.12 14.75a2.25 2.25 0 0 0-1.54-.93 2.31 2.31 0 0 0-1.73.54l-1.7 1.34-.35-.24-.44-.31a16.37 16.37 0 0 1-3.53-4.08 9.89 9.89 0 0 1-1.06-2.2c.44-.31.85-.64 1.25-1l.45-.36a2.23 2.23 0 0 0 .4-3.33L7.71 2.75c-.13-.16-.27-.34-.39-.51-.26-.33-.52-.67-.8-1A2.27 2.27 0 0 0 5 .35a2.35 2.35 0 0 0-1.73.51L1.43 2.32A3.53 3.53 0 0 0 .12 4.43a8.43 8.43 0 0 0 .2 3.64 20.72 20.72 0 0 0 3 6.57 22.83 22.83 0 0 0 6.83 6.8 12 12 0 0 0 4.08 1.75h.31a3.66 3.66 0 0 0 2.91-.86 9.11 9.11 0 0 1 .95-.77l.7-.55a2.44 2.44 0 0 0 .9-1.56 2.31 2.31 0 0 0-.55-1.73zM18.24 20c-.21.18-.43.34-.66.52a13 13 0 0 0-1 .85 2.34 2.34 0 0 1-1.9.55h-.22a10.6 10.6 0 0 1-3.61-1.57 21.36 21.36 0 0 1-6.44-6.4 19.53 19.53 0 0 1-2.82-6.18 7 7 0 0 1-.18-3.08 2.27 2.27 0 0 1 .83-1.35L4.08 1.9a1.16 1.16 0 0 1 .77-.26 1.08 1.08 0 0 1 .66.42c.26.31.51.63.76 1l.41.52L7.84 5a.92.92 0 0 1-.17 1.49l-.47.37c-.45.36-.88.7-1.34 1A1 1 0 0 0 5.45 9a10.41 10.41 0 0 0 1.25 2.72 17.71 17.71 0 0 0 3.81 4.39 6.19 6.19 0 0 0 .55.39c.16.11.32.21.45.31h.05a1.05 1.05 0 0 0 .46.18 1.07 1.07 0 0 0 .77-.25l1.84-1.45a1.1 1.1 0 0 1 .77-.27 1 1 0 0 1 .65.43l2.34 3a1 1 0 0 1-.15 1.55zM12.46 5.39a6.17 6.17 0 0 1 3.11 2.11A6.24 6.24 0 0 1 16.9 11a.64.64 0 0 0 .57.62h.11a.65.65 0 0 0 .63-.69 7.52 7.52 0 0 0-5.38-6.81.65.65 0 1 0-.37 1.25zm9.89 5.86a12.21 12.21 0 0 0-2.65-7A12.24 12.24 0 0 0 13.5 0a.65.65 0 1 0-.36 1.25 11.1 11.1 0 0 1 7.91 10 .64.64 0 0 0 .57.62h.11a.64.64 0 0 0 .62-.68z" id="aшапка"/></g></symbol></svg>